<?xml version="1.0" encoding="UTF-8"?>
<svg xmlns="http://www.w3.org/2000/svg" xmlns:xlink="http://www.w3.org/1999/xlink" width="31px" height="10px" viewBox="0 0 30 10" version="1.1">
<g id="surface1">
<path style="fill-rule:evenodd;fill:rgb(0%,0%,0%);fill-opacity:0.74902;stroke-width:1.25;stroke-linecap:butt;stroke-linejoin:miter;stroke:rgb(0%,0%,0%);stroke-opacity:1;stroke-miterlimit:4;" d="M -218.761456 614.258216 C -218.761456 605.931541 -225.458845 599.238329 -233.739253 599.238329 C -242.019661 599.238329 -248.75764 605.931541 -248.75764 614.258216 C -248.75764 622.505209 -242.019661 629.238262 -233.739253 629.238262 C -225.458845 629.238262 -218.761456 622.505209 -218.761456 614.258216 Z M -218.761456 614.258216 " transform="matrix(0.0962362,0,0,0.0980471,44.224646,-51.780921)"/>
<path style="fill-rule:evenodd;fill:rgb(100%,99.215686%,99.215686%);fill-opacity:1;stroke-width:1.25;stroke-linecap:butt;stroke-linejoin:miter;stroke:rgb(0%,0%,0%);stroke-opacity:1;stroke-miterlimit:4;" d="M -222.496206 621.093375 C -222.496206 616.631234 -226.149327 613.005744 -230.614253 613.005744 C -235.119769 613.005744 -238.7323 616.631234 -238.7323 621.093375 C -238.7323 625.595357 -235.119769 629.220847 -230.614253 629.220847 C -226.149327 629.220847 -222.496206 625.595357 -222.496206 621.093375 Z M -222.496206 621.093375 " transform="matrix(0.0962362,0,0,0.0980471,43.923908,-52.454995)"/>
<path style="fill-rule:evenodd;fill:rgb(0%,0%,0%);fill-opacity:1;stroke-width:1.1169;stroke-linecap:butt;stroke-linejoin:miter;stroke:rgb(100%,100%,100%);stroke-opacity:1;stroke-miterlimit:4;" d="M -670.414325 678.022426 L -657.043902 678.022426 C -654.072697 678.022426 -651.646212 680.452699 -651.646212 683.417633 L -651.646212 750.930629 C -651.646212 753.895562 -654.072697 756.27723 -657.043902 756.27723 L -670.414325 756.27723 C -673.336011 756.27723 -675.762495 753.895562 -675.762495 750.930629 L -675.762495 683.417633 C -675.762495 680.452699 -673.336011 678.022426 -670.414325 678.022426 Z M -394.339836 677.828004 L -349.227036 677.828004 C -340.16486 677.828004 -333.776769 683.417633 -333.776769 689.153078 L -333.776769 705.192883 C -333.776769 708.157816 -336.153733 710.539484 -339.124938 710.539484 L -394.339836 710.539484 C -397.311041 710.539484 -399.688006 708.157816 -399.688006 705.192883 L -399.688006 683.174605 C -399.688006 680.209672 -397.311041 677.828004 -394.339836 677.828004 Z M -472.581575 677.828004 L -417.366677 677.828004 C -414.395472 677.828004 -412.018507 680.209672 -412.018507 683.174605 L -412.018507 705.192883 C -412.018507 708.157816 -414.395472 710.539484 -417.366677 710.539484 L -472.581575 710.539484 C -475.55278 710.539484 -477.929744 708.157816 -477.929744 705.192883 L -477.929744 683.174605 C -477.929744 680.209672 -475.55278 677.828004 -472.581575 677.828004 Z M -551.268994 677.828004 L -496.004576 677.828004 C -493.033371 677.828004 -490.656407 680.209672 -490.656407 683.174605 L -490.656407 705.192883 C -490.656407 708.157816 -493.033371 710.539484 -496.004576 710.539484 L -551.268994 710.539484 C -554.2402 710.539484 -556.617164 708.157816 -556.617164 705.192883 L -556.617164 683.174605 C -556.617164 680.209672 -554.2402 677.828004 -551.268994 677.828004 Z M -630.154494 677.828004 L -574.939596 677.828004 C -571.968391 677.828004 -569.541907 680.209672 -569.541907 683.174605 L -569.541907 705.192883 C -569.541907 708.157816 -571.968391 710.539484 -574.939596 710.539484 L -630.154494 710.539484 C -633.125699 710.539484 -635.502664 708.157816 -635.502664 705.192883 L -635.502664 683.174605 C -635.502664 680.209672 -633.125699 677.828004 -630.154494 677.828004 Z M -340.11534 658.823266 L -412.810829 658.920477 L -459.112111 659.017687 L -598.164517 659.30932 L -685.666513 658.969082 C -688.637718 659.212109 -691.014682 661.107723 -691.163242 663.878234 L -693.391646 714.184895 L -698.393175 718.024727 L -698.393175 742.619094 L -698.294135 761.478016 C -698.393175 766.532984 -694.629648 769.206285 -690.866122 769.303496 L -635.799784 769.303496 C -636.592106 767.019039 -637.136826 765.901113 -637.136826 763.325023 C -637.384427 750.298758 -626.836648 739.799977 -613.416704 739.799977 C -599.50156 739.799977 -590.290823 751.465289 -590.439384 763.325023 C -590.439384 765.901113 -590.934585 767.019039 -591.776426 769.303496 L -510.216841 769.303496 L -446.088328 769.449312 C -446.930169 767.164855 -447.47489 766.04693 -447.47489 763.47084 C -447.623451 750.347363 -437.075672 739.848582 -423.309087 739.994398 C -409.443463 739.994398 -400.529847 751.319473 -400.529847 763.325023 C -400.430807 766.727406 -400.727927 767.991148 -400.727927 769.69234 L -320.802506 753.798352 L -320.356825 676.078207 C -320.208265 667.280617 -331.251244 658.531633 -340.11534 658.823266 Z M -340.11534 658.823266 " transform="matrix(0.0788821,0,0,0.0803665,55.180585,-52.900426)"/>
<path style="fill-rule:evenodd;fill:rgb(0%,0%,0%);fill-opacity:0.74902;stroke-width:1.25;stroke-linecap:butt;stroke-linejoin:miter;stroke:rgb(0%,0%,0%);stroke-opacity:1;stroke-miterlimit:4;" d="M -218.738453 614.240702 C -218.738453 605.953868 -225.476432 599.220815 -233.75684 599.220815 C -242.037248 599.220815 -248.734637 605.953868 -248.734637 614.240702 C -248.734637 622.527536 -242.037248 629.220748 -233.75684 629.220748 C -225.476432 629.220748 -218.738453 622.527536 -218.738453 614.240702 Z M -218.738453 614.240702 " transform="matrix(0.0962362,0,0,0.0980471,29.261495,-51.755766)"/>
<path style="fill-rule:evenodd;fill:rgb(100%,99.215686%,99.215686%);fill-opacity:1;stroke-width:1.25;stroke-linecap:butt;stroke-linejoin:miter;stroke:rgb(0%,0%,0%);stroke-opacity:1;stroke-miterlimit:4;" d="M -222.513793 621.115702 C -222.513793 616.61372 -226.126324 612.98823 -230.63184 612.98823 C -235.096766 612.98823 -238.749887 616.61372 -238.749887 621.115702 C -238.749887 625.617684 -235.096766 629.243174 -230.63184 629.243174 C -226.126324 629.243174 -222.513793 625.617684 -222.513793 621.115702 Z M -222.513793 621.115702 " transform="matrix(0.0962362,0,0,0.0980471,28.960757,-52.42984)"/>
</g>
</svg>
